solid camera mount 2
facet normal 1.598759889800377e-17 -3.347884712896818e-16 1.0
  outer loop
    vertex -0.9999999999999999 1.1068427260309263e-16 33.99999999999999
    vertex 1.4999999999999931 1.9999999999999998 33.99999999999999
    vertex -0.9999999999999999 8.811275192273857 33.99999999999999
  endloop
endfacet
facet normal 1.598759889800377e-17 -3.347884712896818e-16 1.0
  outer loop
    vertex 1.4999999999999931 1.9999999999999998 33.99999999999999
    vertex -0.9999999999999999 1.1068427260309263e-16 33.99999999999999
    vertex 3.0 0.0 33.99999999999999
  endloop
endfacet
facet normal 1.598759889800377e-17 -3.347884712896818e-16 1.0
  outer loop
    vertex 1.4999999999999931 1.9999999999999998 33.99999999999999
    vertex 3.0 0.0 33.99999999999999
    vertex 3.000000000000001 1.9999999999999998 33.99999999999999
  endloop
endfacet
facet normal 1.598759889800377e-17 -3.347884712896818e-16 1.0
  outer loop
    vertex 3.000000000000001 3.9999999999999996 33.99999999999999
    vertex 3.0 6.09389722722171 33.99999999999999
    vertex 1.4999999999999931 3.9999999999999996 33.99999999999999
  endloop
endfacet
facet normal 1.598759889800377e-17 -3.347884712896818e-16 1.0
  outer loop
    vertex 34.499999999999986 4.000000000000001 33.99999999999999
    vertex 32.99999999999999 6.09389722722171 33.99999999999999
    vertex 32.99999999999999 4.000000000000001 33.99999999999999
  endloop
endfacet
facet normal 1.598759889800377e-17 -3.347884712896818e-16 1.0
  outer loop
    vertex 36.99999999999999 0.0 33.99999999999999
    vertex 32.99999999999999 1.9999999999999998 33.99999999999999
    vertex 32.99999999999999 0.0 33.99999999999999
  endloop
endfacet
facet normal 1.598759889800377e-17 -3.347884712896818e-16 1.0
  outer loop
    vertex 32.99999999999999 1.9999999999999998 33.99999999999999
    vertex 36.99999999999999 0.0 33.99999999999999
    vertex 34.499999999999986 1.9999999999999998 33.99999999999999
  endloop
endfacet
facet normal 1.598759889800377e-17 -3.347884712896818e-16 1.0
  outer loop
    vertex 34.499999999999986 1.9999999999999998 33.99999999999999
    vertex 36.99999999999999 0.0 33.99999999999999
    vertex 34.499999999999986 4.000000000000001 33.99999999999999
  endloop
endfacet
facet normal 1.598759889800377e-17 -3.347884712896818e-16 1.0
  outer loop
    vertex -0.9999999999999999 8.811275192273857 33.99999999999999
    vertex 3.0 6.09389722722171 33.99999999999999
    vertex 36.99999999999999 8.811275192273857 33.99999999999999
  endloop
endfacet
facet normal 1.598759889800377e-17 -3.347884712896818e-16 1.0
  outer loop
    vertex 3.0 6.09389722722171 33.99999999999999
    vertex -0.9999999999999999 8.811275192273857 33.99999999999999
    vertex 1.4999999999999931 3.9999999999999996 33.99999999999999
  endloop
endfacet
facet normal 1.598759889800377e-17 -3.347884712896818e-16 1.0
  outer loop
    vertex 1.4999999999999931 3.9999999999999996 33.99999999999999
    vertex -0.9999999999999999 8.811275192273857 33.99999999999999
    vertex 1.4999999999999931 1.9999999999999998 33.99999999999999
  endloop
endfacet
facet normal 1.598759889800377e-17 -3.347884712896818e-16 1.0
  outer loop
    vertex 36.99999999999999 8.811275192273857 33.99999999999999
    vertex 3.0 6.09389722722171 33.99999999999999
    vertex 32.99999999999999 6.09389722722171 33.99999999999999
  endloop
endfacet
facet normal 1.598759889800377e-17 -3.347884712896818e-16 1.0
  outer loop
    vertex 36.99999999999999 8.811275192273857 33.99999999999999
    vertex 32.99999999999999 6.09389722722171 33.99999999999999
    vertex 34.499999999999986 4.000000000000001 33.99999999999999
  endloop
endfacet
facet normal 1.598759889800377e-17 -3.347884712896818e-16 1.0
  outer loop
    vertex 36.99999999999999 8.811275192273857 33.99999999999999
    vertex 34.499999999999986 4.000000000000001 33.99999999999999
    vertex 36.99999999999999 0.0 33.99999999999999
  endloop
endfacet
facet normal -1.0 0.0 0.0
  outer loop
    vertex 32.99999999999999 6.09389722722171 33.99999999999999
    vertex 32.99999999999999 4.000000000000001 1.9999999999999998
    vertex 32.99999999999999 4.000000000000001 33.99999999999999
  endloop
endfacet
facet normal -1.0 0.0 0.0
  outer loop
    vertex 32.99999999999999 1.9999999999999998 33.99999999999999
    vertex 32.99999999999999 0.0 0.0
    vertex 32.99999999999999 0.0 33.99999999999999
  endloop
endfacet
facet normal -1.0 0.0 0.0
  outer loop
    vertex 32.99999999999999 0.0 0.0
    vertex 32.99999999999999 1.9999999999999998 33.99999999999999
    vertex 32.99999999999999 1.9999999999999998 1.9999999999999998
  endloop
endfacet
facet normal -1.0 0.0 0.0
  outer loop
    vertex 32.99999999999999 0.0 0.0
    vertex 32.99999999999999 1.9999999999999998 1.9999999999999998
    vertex 32.99999999999999 6.09389722722171 0.0
  endloop
endfacet
facet normal -1.0 0.0 0.0
  outer loop
    vertex 32.99999999999999 6.09389722722171 0.0
    vertex 32.99999999999999 1.9999999999999998 1.9999999999999998
    vertex 32.99999999999999 4.000000000000001 1.9999999999999998
  endloop
endfacet
facet normal -1.0 0.0 0.0
  outer loop
    vertex 32.99999999999999 6.09389722722171 0.0
    vertex 32.99999999999999 4.000000000000001 1.9999999999999998
    vertex 32.99999999999999 6.09389722722171 33.99999999999999
  endloop
endfacet
facet normal -0.0 1.0 -0.0
  outer loop
    vertex 32.99999999999999 1.9999999999999998 33.99999999999999
    vertex 34.499999999999986 1.9999999999999998 1.9999999999999998
    vertex 32.99999999999999 1.9999999999999998 1.9999999999999998
  endloop
endfacet
facet normal -0.0 1.0 -0.0
  outer loop
    vertex 34.499999999999986 1.9999999999999998 1.9999999999999998
    vertex 32.99999999999999 1.9999999999999998 33.99999999999999
    vertex 34.499999999999986 1.9999999999999998 33.99999999999999
  endloop
endfacet
facet normal -1.0 0.0 0.0
  outer loop
    vertex 34.499999999999986 4.000000000000001 33.99999999999999
    vertex 34.499999999999986 1.9999999999999998 1.9999999999999998
    vertex 34.499999999999986 1.9999999999999998 33.99999999999999
  endloop
endfacet
facet normal -1.0 0.0 0.0
  outer loop
    vertex 34.499999999999986 1.9999999999999998 1.9999999999999998
    vertex 34.499999999999986 4.000000000000001 33.99999999999999
    vertex 34.499999999999986 4.000000000000001 1.9999999999999998
  endloop
endfacet
facet normal -0.0 -1.0 -0.0
  outer loop
    vertex 32.99999999999999 6.09389722722171 33.99999999999999
    vertex 3.0 6.09389722722171 0.0
    vertex 32.99999999999999 6.09389722722171 0.0
  endloop
endfacet
facet normal -0.0 -1.0 -0.0
  outer loop
    vertex 3.0 6.09389722722171 0.0
    vertex 32.99999999999999 6.09389722722171 33.99999999999999
    vertex 3.0 6.09389722722171 33.99999999999999
  endloop
endfacet
facet normal 1.0 3.4495602792709227e-17 4.664461566612212e-18
  outer loop
    vertex 3.0 0.0 0.0
    vertex 3.000000000000001 1.9999999999999998 1.9999999999999998
    vertex 3.0 0.0 33.99999999999999
  endloop
endfacet
facet normal 1.0 3.4495602792709227e-17 4.664461566612212e-18
  outer loop
    vertex 3.000000000000001 1.9999999999999998 1.9999999999999998
    vertex 3.0 0.0 0.0
    vertex 3.0 6.09389722722171 0.0
  endloop
endfacet
facet normal 1.0 3.4495602792709227e-17 4.664461566612212e-18
  outer loop
    vertex 3.000000000000001 1.9999999999999998 1.9999999999999998
    vertex 3.0 6.09389722722171 0.0
    vertex 3.000000000000001 3.9999999999999996 1.9999999999999998
  endloop
endfacet
facet normal 1.0 3.4495602792709227e-17 4.664461566612212e-18
  outer loop
    vertex 3.000000000000001 3.9999999999999996 1.9999999999999998
    vertex 3.0 6.09389722722171 0.0
    vertex 3.000000000000001 3.9999999999999996 33.99999999999999
  endloop
endfacet
facet normal 1.0 3.4495602792709227e-17 4.664461566612212e-18
  outer loop
    vertex 3.000000000000001 3.9999999999999996 33.99999999999999
    vertex 3.0 6.09389722722171 0.0
    vertex 3.0 6.09389722722171 33.99999999999999
  endloop
endfacet
facet normal 1.0 3.4495602792709227e-17 4.664461566612212e-18
  outer loop
    vertex 3.000000000000001 1.9999999999999998 33.99999999999999
    vertex 3.0 0.0 33.99999999999999
    vertex 3.000000000000001 1.9999999999999998 1.9999999999999998
  endloop
endfacet
facet normal 1.0 0.0 0.0
  outer loop
    vertex 1.4999999999999931 3.9999999999999996 1.9999999999999998
    vertex 1.4999999999999931 1.9999999999999998 33.99999999999999
    vertex 1.4999999999999931 1.9999999999999998 1.9999999999999998
  endloop
endfacet
facet normal 1.0 0.0 0.0
  outer loop
    vertex 1.4999999999999931 1.9999999999999998 33.99999999999999
    vertex 1.4999999999999931 3.9999999999999996 1.9999999999999998
    vertex 1.4999999999999931 3.9999999999999996 33.99999999999999
  endloop
endfacet
facet normal -0.0 1.0 -0.0
  outer loop
    vertex 1.4999999999999931 1.9999999999999998 33.99999999999999
    vertex 3.000000000000001 1.9999999999999998 1.9999999999999998
    vertex 1.4999999999999931 1.9999999999999998 1.9999999999999998
  endloop
endfacet
facet normal -0.0 1.0 -0.0
  outer loop
    vertex 3.000000000000001 1.9999999999999998 1.9999999999999998
    vertex 1.4999999999999931 1.9999999999999998 33.99999999999999
    vertex 3.000000000000001 1.9999999999999998 33.99999999999999
  endloop
endfacet
facet normal 0.0 -1.0 0.0
  outer loop
    vertex 3.0 0.0 0.0
    vertex -0.9999999999999999 1.1068427260309263e-16 33.99999999999999
    vertex -0.9999999999999999 1.1068427260309263e-16 -2.5309764326016607e-17
  endloop
endfacet
facet normal 0.0 -1.0 0.0
  outer loop
    vertex -0.9999999999999999 1.1068427260309263e-16 33.99999999999999
    vertex 3.0 0.0 0.0
    vertex 3.0 0.0 33.99999999999999
  endloop
endfacet
facet normal -1.0 1.1068427260309265e-16 -2.530976432601661e-17
  outer loop
    vertex -0.9999999999999999 8.811275192273857 33.99999999999999
    vertex -0.9999999999999999 1.1068427260309263e-16 -2.5309764326016607e-17
    vertex -0.9999999999999999 1.1068427260309263e-16 33.99999999999999
  endloop
endfacet
facet normal -1.0 1.1068427260309265e-16 -2.530976432601661e-17
  outer loop
    vertex -0.9999999999999999 1.1068427260309263e-16 -2.5309764326016607e-17
    vertex -0.9999999999999999 8.811275192273857 33.99999999999999
    vertex -0.9999999999999999 8.811275192273857 -2.5309764326016607e-17
  endloop
endfacet
facet normal 0.0 -1.0 0.0
  outer loop
    vertex 36.99999999999999 0.0 33.99999999999999
    vertex 32.99999999999999 0.0 0.0
    vertex 36.99999999999999 0.0 0.0
  endloop
endfacet
facet normal 0.0 -1.0 0.0
  outer loop
    vertex 32.99999999999999 0.0 0.0
    vertex 36.99999999999999 0.0 33.99999999999999
    vertex 32.99999999999999 0.0 33.99999999999999
  endloop
endfacet
facet normal -0.0 -0.0 1.0
  outer loop
    vertex 3.000000000000001 1.9999999999999998 1.9999999999999998
    vertex 1.4999999999999931 3.9999999999999996 1.9999999999999998
    vertex 1.4999999999999931 1.9999999999999998 1.9999999999999998
  endloop
endfacet
facet normal -0.0 -0.0 1.0
  outer loop
    vertex 1.4999999999999931 3.9999999999999996 1.9999999999999998
    vertex 3.000000000000001 1.9999999999999998 1.9999999999999998
    vertex 3.000000000000001 3.9999999999999996 1.9999999999999998
  endloop
endfacet
facet normal -0.0 -0.0 1.0
  outer loop
    vertex 34.499999999999986 1.9999999999999998 1.9999999999999998
    vertex 32.99999999999999 4.000000000000001 1.9999999999999998
    vertex 32.99999999999999 1.9999999999999998 1.9999999999999998
  endloop
endfacet
facet normal -0.0 -0.0 1.0
  outer loop
    vertex 32.99999999999999 4.000000000000001 1.9999999999999998
    vertex 34.499999999999986 1.9999999999999998 1.9999999999999998
    vertex 34.499999999999986 4.000000000000001 1.9999999999999998
  endloop
endfacet
facet normal -1.8785915034636895e-32 -1.5106963299363735e-16 1.0
  outer loop
    vertex 9.999999999999998 8.811275192273857 1.9999999999999998
    vertex 7.0 15.81127519227386 2.000000000000001
    vertex 7.0 8.811275192273857 1.9999999999999998
  endloop
endfacet
facet normal -1.8785915034636895e-32 -1.5106963299363735e-16 1.0
  outer loop
    vertex 7.0 15.81127519227386 2.000000000000001
    vertex 9.999999999999998 8.811275192273857 1.9999999999999998
    vertex 9.999999999999998 15.81127519227386 2.000000000000001
  endloop
endfacet
facet normal 1.762479051592436e-16 -1.0 5.507747036226363e-18
  outer loop
    vertex 3.000000000000001 3.9999999999999996 33.99999999999999
    vertex 1.4999999999999931 3.9999999999999996 1.9999999999999998
    vertex 3.000000000000001 3.9999999999999996 1.9999999999999998
  endloop
endfacet
facet normal 1.762479051592436e-16 -1.0 5.507747036226363e-18
  outer loop
    vertex 1.4999999999999931 3.9999999999999996 1.9999999999999998
    vertex 3.000000000000001 3.9999999999999996 33.99999999999999
    vertex 1.4999999999999931 3.9999999999999996 33.99999999999999
  endloop
endfacet
facet normal 0.0 -1.0 0.0
  outer loop
    vertex 34.499999999999986 4.000000000000001 33.99999999999999
    vertex 32.99999999999999 4.000000000000001 1.9999999999999998
    vertex 34.499999999999986 4.000000000000001 1.9999999999999998
  endloop
endfacet
facet normal 0.0 -1.0 0.0
  outer loop
    vertex 32.99999999999999 4.000000000000001 1.9999999999999998
    vertex 34.499999999999986 4.000000000000001 33.99999999999999
    vertex 32.99999999999999 4.000000000000001 33.99999999999999
  endloop
endfacet
facet normal 1.0 0.0 0.0
  outer loop
    vertex 36.99999999999999 8.811275192273857 0.0
    vertex 36.99999999999999 0.0 33.99999999999999
    vertex 36.99999999999999 0.0 0.0
  endloop
endfacet
facet normal 1.0 0.0 0.0
  outer loop
    vertex 36.99999999999999 0.0 33.99999999999999
    vertex 36.99999999999999 8.811275192273857 0.0
    vertex 36.99999999999999 8.811275192273857 33.99999999999999
  endloop
endfacet
facet normal -0.0 1.0 -0.0
  outer loop
    vertex -0.9999999999999999 8.811275192273857 33.99999999999999
    vertex 7.0 8.811275192273857 0.0
    vertex -0.9999999999999999 8.811275192273857 -2.5309764326016607e-17
  endloop
endfacet
facet normal -0.0 1.0 -0.0
  outer loop
    vertex 7.0 8.811275192273857 0.0
    vertex -0.9999999999999999 8.811275192273857 33.99999999999999
    vertex 7.0 8.811275192273857 1.9999999999999998
  endloop
endfacet
facet normal -0.0 1.0 -0.0
  outer loop
    vertex 7.0 8.811275192273857 1.9999999999999998
    vertex -0.9999999999999999 8.811275192273857 33.99999999999999
    vertex 7.0 8.811275192273857 15.999999999999996
  endloop
endfacet
facet normal -0.0 1.0 -0.0
  outer loop
    vertex 7.0 8.811275192273857 15.999999999999996
    vertex -0.9999999999999999 8.811275192273857 33.99999999999999
    vertex 9.999999999999998 8.811275192273857 15.999999999999996
  endloop
endfacet
facet normal -0.0 1.0 -0.0
  outer loop
    vertex 9.999999999999998 8.811275192273857 15.999999999999996
    vertex -0.9999999999999999 8.811275192273857 33.99999999999999
    vertex 25.999999999999996 8.811275192273857 15.999999999999996
  endloop
endfacet
facet normal -0.0 1.0 -0.0
  outer loop
    vertex 25.999999999999996 8.811275192273857 15.999999999999996
    vertex -0.9999999999999999 8.811275192273857 33.99999999999999
    vertex 28.999999999999993 8.811275192273857 15.999999999999996
  endloop
endfacet
facet normal -0.0 1.0 -0.0
  outer loop
    vertex 28.999999999999993 8.811275192273857 1.9999999999999998
    vertex 36.99999999999999 8.811275192273857 0.0
    vertex 28.999999999999993 8.811275192273857 0.0
  endloop
endfacet
facet normal -0.0 1.0 -0.0
  outer loop
    vertex 36.99999999999999 8.811275192273857 0.0
    vertex 28.999999999999993 8.811275192273857 1.9999999999999998
    vertex 36.99999999999999 8.811275192273857 33.99999999999999
  endloop
endfacet
facet normal -0.0 1.0 -0.0
  outer loop
    vertex 36.99999999999999 8.811275192273857 33.99999999999999
    vertex 28.999999999999993 8.811275192273857 1.9999999999999998
    vertex 28.999999999999993 8.811275192273857 15.999999999999996
  endloop
endfacet
facet normal -0.0 1.0 -0.0
  outer loop
    vertex 36.99999999999999 8.811275192273857 33.99999999999999
    vertex 28.999999999999993 8.811275192273857 15.999999999999996
    vertex -0.9999999999999999 8.811275192273857 33.99999999999999
  endloop
endfacet
facet normal -0.0 1.0 -0.0
  outer loop
    vertex 9.999999999999998 8.811275192273857 15.999999999999996
    vertex 25.999999999999996 8.811275192273857 1.9999999999999998
    vertex 9.999999999999998 8.811275192273857 1.9999999999999998
  endloop
endfacet
facet normal -0.0 1.0 -0.0
  outer loop
    vertex 25.999999999999996 8.811275192273857 1.9999999999999998
    vertex 9.999999999999998 8.811275192273857 15.999999999999996
    vertex 25.999999999999996 8.811275192273857 15.999999999999996
  endloop
endfacet
facet normal 1.0228625496437344e-17 4.390013950593686e-17 -1.0
  outer loop
    vertex 9.999999999999998 15.81127519227386 9.98738129235714e-16
    vertex 7.0 8.811275192273857 0.0
    vertex 7.0 15.81127519227386 9.98738129235714e-16
  endloop
endfacet
facet normal 1.0228625496437344e-17 4.390013950593686e-17 -1.0
  outer loop
    vertex 10.025665415878567 18.202853768934006 1.0574874309554614e-15
    vertex 9.999999999999998 15.81127519227386 9.98738129235714e-16
    vertex 9.999999999999998 17.811275192273854 1.4099832412739487e-15
  endloop
endfacet
facet normal 1.0228625496437344e-17 4.390013950593686e-17 -1.0
  outer loop
    vertex 12.999999999999998 20.811275192273854 2.46747067222941e-15
    vertex 16.04211401309848 15.219542827893763 1.0574874309554614e-15
    vertex 16.003159920724954 14.698893264007642 1.0574874309554614e-15
  endloop
endfacet
facet normal 1.0228625496437344e-17 4.390013950593686e-17 -1.0
  outer loop
    vertex 16.04211401309848 15.219542827893763 1.0574874309554614e-15
    vertex 12.999999999999998 20.811275192273854 2.46747067222941e-15
    vertex 16.21449479991977 15.712369627106558 1.0574874309554614e-15
  endloop
endfacet
facet normal 1.0228625496437344e-17 4.390013950593686e-17 -1.0
  outer loop
    vertex 16.21449479991977 15.712369627106558 1.0574874309554614e-15
    vertex 12.999999999999998 20.811275192273854 2.46747067222941e-15
    vertex 16.50855481543967 16.143788329714464 1.0574874309554614e-15
  endloop
endfacet
facet normal 1.0228625496437344e-17 4.390013950593686e-17 -1.0
  outer loop
    vertex 16.50855481543967 16.143788329714464 1.0574874309554614e-15
    vertex 12.999999999999998 20.811275192273854 2.46747067222941e-15
    vertex 16.904254355557654 16.48439846408787 1.0574874309554614e-15
  endloop
endfacet
facet normal 1.0228625496437344e-17 4.390013950593686e-17 -1.0
  outer loop
    vertex 16.904254355557654 16.48439846408787 1.0574874309554614e-15
    vertex 12.999999999999998 20.811275192273854 2.46747067222941e-15
    vertex 22.999999999999996 20.811275192273854 0.0
  endloop
endfacet
facet normal 1.0228625496437344e-17 4.390013950593686e-17 -1.0
  outer loop
    vertex 16.904254355557654 16.48439846408787 1.0574874309554614e-15
    vertex 22.999999999999996 20.811275192273854 0.0
    vertex 17.374627150539084 16.71098801245409 1.0574874309554614e-15
  endloop
endfacet
facet normal 1.0228625496437344e-17 4.390013950593686e-17 -1.0
  outer loop
    vertex 17.374627150539084 16.71098801245409 1.0574874309554614e-15
    vertex 22.999999999999996 20.811275192273854 0.0
    vertex 17.887618071733783 16.808115271548903 1.0574874309554614e-15
  endloop
endfacet
facet normal 1.0228625496437344e-17 4.390013950593686e-17 -1.0
  outer loop
    vertex 17.887618071733783 16.808115271548903 1.0574874309554614e-15
    vertex 22.999999999999996 20.811275192273854 0.0
    vertex 18.408267635619904 16.769161179175377 1.0574874309554614e-15
  endloop
endfacet
facet normal 1.0228625496437344e-17 4.390013950593686e-17 -1.0
  outer loop
    vertex 18.408267635619904 16.769161179175377 1.0574874309554614e-15
    vertex 22.999999999999996 20.811275192273854 0.0
    vertex 18.901094434832697 16.596780392354088 1.0574874309554614e-15
  endloop
endfacet
facet normal 1.0228625496437344e-17 4.390013950593686e-17 -1.0
  outer loop
    vertex 18.901094434832697 16.596780392354088 1.0574874309554614e-15
    vertex 22.999999999999996 20.811275192273854 0.0
    vertex 19.332513137440603 16.302720376834188 1.0574874309554614e-15
  endloop
endfacet
facet normal 1.0228625496437344e-17 4.390013950593686e-17 -1.0
  outer loop
    vertex 19.332513137440603 16.302720376834188 1.0574874309554614e-15
    vertex 22.999999999999996 20.811275192273854 0.0
    vertex 19.67312327181401 15.907020836716203 1.0574874309554614e-15
  endloop
endfacet
facet normal 1.0228625496437344e-17 4.390013950593686e-17 -1.0
  outer loop
    vertex 19.67312327181401 15.907020836716203 1.0574874309554614e-15
    vertex 22.999999999999996 20.811275192273854 0.0
    vertex 19.89971282018023 15.436648041734768 1.0574874309554614e-15
  endloop
endfacet
facet normal 1.0228625496437344e-17 4.390013950593686e-17 -1.0
  outer loop
    vertex 19.89971282018023 15.436648041734768 1.0574874309554614e-15
    vertex 22.999999999999996 20.811275192273854 0.0
    vertex 19.996840079275042 14.923657120540074 1.0574874309554614e-15
  endloop
endfacet
facet normal 1.0228625496437344e-17 4.390013950593686e-17 -1.0
  outer loop
    vertex -0.9999999999999999 8.811275192273857 -2.5309764326016607e-17
    vertex 3.0 6.09389722722171 0.0
    vertex -0.9999999999999999 1.1068427260309263e-16 -2.5309764326016607e-17
  endloop
endfacet
facet normal 1.0228625496437344e-17 4.390013950593686e-17 -1.0
  outer loop
    vertex 3.0 6.09389722722171 0.0
    vertex -0.9999999999999999 8.811275192273857 -2.5309764326016607e-17
    vertex 7.0 8.811275192273857 0.0
  endloop
endfacet
facet normal 1.0228625496437344e-17 4.390013950593686e-17 -1.0
  outer loop
    vertex 3.0 6.09389722722171 0.0
    vertex 7.0 8.811275192273857 0.0
    vertex 32.99999999999999 6.09389722722171 0.0
  endloop
endfacet
facet normal 1.0228625496437344e-17 4.390013950593686e-17 -1.0
  outer loop
    vertex 32.99999999999999 6.09389722722171 0.0
    vertex 7.0 8.811275192273857 0.0
    vertex 9.999999999999998 15.81127519227386 9.98738129235714e-16
  endloop
endfacet
facet normal 1.0228625496437344e-17 4.390013950593686e-17 -1.0
  outer loop
    vertex 32.99999999999999 6.09389722722171 0.0
    vertex 9.999999999999998 15.81127519227386 9.98738129235714e-16
    vertex 17.0989055651673 13.025769992193629 1.0574874309554614e-15
  endloop
endfacet
facet normal 1.0228625496437344e-17 4.390013950593686e-17 -1.0
  outer loop
    vertex 17.0989055651673 13.025769992193629 1.0574874309554614e-15
    vertex 9.999999999999998 15.81127519227386 9.98738129235714e-16
    vertex 16.667486862559393 13.319830007713529 1.0574874309554614e-15
  endloop
endfacet
facet normal 1.0228625496437344e-17 4.390013950593686e-17 -1.0
  outer loop
    vertex 16.667486862559393 13.319830007713529 1.0574874309554614e-15
    vertex 9.999999999999998 15.81127519227386 9.98738129235714e-16
    vertex 10.025665415878567 18.202853768934006 1.0574874309554614e-15
  endloop
endfacet
facet normal 1.0228625496437344e-17 4.390013950593686e-17 -1.0
  outer loop
    vertex 16.667486862559393 13.319830007713529 1.0574874309554614e-15
    vertex 10.025665415878567 18.202853768934006 1.0574874309554614e-15
    vertex 10.102222521132793 18.587732327581413 3.524958103184872e-16
  endloop
endfacet
facet normal 1.0228625496437344e-17 4.390013950593686e-17 -1.0
  outer loop
    vertex 16.667486862559393 13.319830007713529 1.0574874309554614e-15
    vertex 10.102222521132793 18.587732327581413 3.524958103184872e-16
    vertex 10.228361402466138 18.95932548936912 0.0
  endloop
endfacet
facet normal 1.0228625496437344e-17 4.390013950593686e-17 -1.0
  outer loop
    vertex 16.667486862559393 13.319830007713529 1.0574874309554614e-15
    vertex 10.228361402466138 18.95932548936912 0.0
    vertex 10.401923788646682 19.311275192273854 -3.524958103184872e-16
  endloop
endfacet
facet normal 1.0228625496437344e-17 4.390013950593686e-17 -1.0
  outer loop
    vertex 16.667486862559393 13.319830007713529 1.0574874309554614e-15
    vertex 10.401923788646682 19.311275192273854 -3.524958103184872e-16
    vertex 10.619939979126293 19.637559479300013 -3.524958103184872e-16
  endloop
endfacet
facet normal 1.0228625496437344e-17 4.390013950593686e-17 -1.0
  outer loop
    vertex 16.667486862559393 13.319830007713529 1.0574874309554614e-15
    vertex 10.619939979126293 19.637559479300013 -3.524958103184872e-16
    vertex 10.878679656440356 19.932595535833496 -3.524958103184872e-16
  endloop
endfacet
facet normal 1.0228625496437344e-17 4.390013950593686e-17 -1.0
  outer loop
    vertex 16.667486862559393 13.319830007713529 1.0574874309554614e-15
    vertex 10.878679656440356 19.932595535833496 -3.524958103184872e-16
    vertex 16.326876728185983 13.715529547831514 1.0574874309554614e-15
  endloop
endfacet
facet normal 1.0228625496437344e-17 4.390013950593686e-17 -1.0
  outer loop
    vertex 16.326876728185983 13.715529547831514 1.0574874309554614e-15
    vertex 10.878679656440356 19.932595535833496 -3.524958103184872e-16
    vertex 11.173715712973838 20.191335213147557 -3.524958103184872e-16
  endloop
endfacet
facet normal 1.0228625496437344e-17 4.390013950593686e-17 -1.0
  outer loop
    vertex 16.326876728185983 13.715529547831514 1.0574874309554614e-15
    vertex 11.173715712973838 20.191335213147557 -3.524958103184872e-16
    vertex 11.499999999999998 20.409351403627166 0.0
  endloop
endfacet
facet normal 1.0228625496437344e-17 4.390013950593686e-17 -1.0
  outer loop
    vertex 16.326876728185983 13.715529547831514 1.0574874309554614e-15
    vertex 11.499999999999998 20.409351403627166 0.0
    vertex 11.85194970290473 20.582913789807712 3.524958103184872e-16
  endloop
endfacet
facet normal 1.0228625496437344e-17 4.390013950593686e-17 -1.0
  outer loop
    vertex 16.326876728185983 13.715529547831514 1.0574874309554614e-15
    vertex 11.85194970290473 20.582913789807712 3.524958103184872e-16
    vertex 12.223542864692437 20.70905267114106 1.0574874309554614e-15
  endloop
endfacet
facet normal 1.0228625496437344e-17 4.390013950593686e-17 -1.0
  outer loop
    vertex 16.326876728185983 13.715529547831514 1.0574874309554614e-15
    vertex 12.223542864692437 20.70905267114106 1.0574874309554614e-15
    vertex 12.608421423339843 20.785609776395283 1.762479051592436e-15
  endloop
endfacet
facet normal 1.0228625496437344e-17 4.390013950593686e-17 -1.0
  outer loop
    vertex 16.326876728185983 13.715529547831514 1.0574874309554614e-15
    vertex 12.608421423339843 20.785609776395283 1.762479051592436e-15
    vertex 16.100287179819766 14.185902342812945 1.0574874309554614e-15
  endloop
endfacet
facet normal 1.0228625496437344e-17 4.390013950593686e-17 -1.0
  outer loop
    vertex 16.100287179819766 14.185902342812945 1.0574874309554614e-15
    vertex 12.608421423339843 20.785609776395283 1.762479051592436e-15
    vertex 12.999999999999998 20.811275192273854 2.46747067222941e-15
  endloop
endfacet
facet normal 1.0228625496437344e-17 4.390013950593686e-17 -1.0
  outer loop
    vertex 16.100287179819766 14.185902342812945 1.0574874309554614e-15
    vertex 12.999999999999998 20.811275192273854 2.46747067222941e-15
    vertex 16.003159920724954 14.698893264007642 1.0574874309554614e-15
  endloop
endfacet
facet normal 1.0228625496437344e-17 4.390013950593686e-17 -1.0
  outer loop
    vertex 32.99999999999999 6.09389722722171 0.0
    vertex 17.0989055651673 13.025769992193629 1.0574874309554614e-15
    vertex 17.59173236438009 12.853389205372341 1.0574874309554614e-15
  endloop
endfacet
facet normal 1.0228625496437344e-17 4.390013950593686e-17 -1.0
  outer loop
    vertex 32.99999999999999 6.09389722722171 0.0
    vertex 17.59173236438009 12.853389205372341 1.0574874309554614e-15
    vertex 18.112381928266213 12.814435112998813 1.0574874309554614e-15
  endloop
endfacet
facet normal 1.0228625496437344e-17 4.390013950593686e-17 -1.0
  outer loop
    vertex 32.99999999999999 6.09389722722171 0.0
    vertex 18.112381928266213 12.814435112998813 1.0574874309554614e-15
    vertex 18.62537284946091 12.911562372093623 1.0574874309554614e-15
  endloop
endfacet
facet normal 1.0228625496437344e-17 4.390013950593686e-17 -1.0
  outer loop
    vertex 32.99999999999999 6.09389722722171 0.0
    vertex 18.62537284946091 12.911562372093623 1.0574874309554614e-15
    vertex 19.095745644442342 13.138151920459844 1.0574874309554614e-15
  endloop
endfacet
facet normal 1.0228625496437344e-17 4.390013950593686e-17 -1.0
  outer loop
    vertex 32.99999999999999 6.09389722722171 0.0
    vertex 19.095745644442342 13.138151920459844 1.0574874309554614e-15
    vertex 19.491445184560327 13.478762054833252 1.0574874309554614e-15
  endloop
endfacet
facet normal 1.0228625496437344e-17 4.390013950593686e-17 -1.0
  outer loop
    vertex 32.99999999999999 6.09389722722171 0.0
    vertex 19.491445184560327 13.478762054833252 1.0574874309554614e-15
    vertex 19.785505200080227 13.910180757441157 1.0574874309554614e-15
  endloop
endfacet
facet normal 1.0228625496437344e-17 4.390013950593686e-17 -1.0
  outer loop
    vertex 32.99999999999999 6.09389722722171 0.0
    vertex 19.785505200080227 13.910180757441157 1.0574874309554614e-15
    vertex 19.957885986901516 14.40300755665395 1.0574874309554614e-15
  endloop
endfacet
facet normal 1.0228625496437344e-17 4.390013950593686e-17 -1.0
  outer loop
    vertex 32.99999999999999 6.09389722722171 0.0
    vertex 19.957885986901516 14.40300755665395 1.0574874309554614e-15
    vertex 19.996840079275042 14.923657120540074 1.0574874309554614e-15
  endloop
endfacet
facet normal 1.0228625496437344e-17 4.390013950593686e-17 -1.0
  outer loop
    vertex 32.99999999999999 6.09389722722171 0.0
    vertex 19.996840079275042 14.923657120540074 1.0574874309554614e-15
    vertex 28.999999999999993 8.811275192273857 0.0
  endloop
endfacet
facet normal 1.0228625496437344e-17 4.390013950593686e-17 -1.0
  outer loop
    vertex 28.999999999999993 8.811275192273857 0.0
    vertex 19.996840079275042 14.923657120540074 1.0574874309554614e-15
    vertex 22.999999999999996 20.811275192273854 0.0
  endloop
endfacet
facet normal 1.0228625496437344e-17 4.390013950593686e-17 -1.0
  outer loop
    vertex 28.999999999999993 8.811275192273857 0.0
    vertex 22.999999999999996 20.811275192273854 0.0
    vertex 23.39157857666015 20.785609776395283 3.524958103184872e-16
  endloop
endfacet
facet normal 1.0228625496437344e-17 4.390013950593686e-17 -1.0
  outer loop
    vertex 28.999999999999993 8.811275192273857 0.0
    vertex 23.39157857666015 20.785609776395283 3.524958103184872e-16
    vertex 23.77645713530756 20.70905267114106 7.049916206369744e-16
  endloop
endfacet
facet normal 1.0228625496437344e-17 4.390013950593686e-17 -1.0
  outer loop
    vertex 28.999999999999993 8.811275192273857 0.0
    vertex 23.77645713530756 20.70905267114106 7.049916206369744e-16
    vertex 25.999999999999996 15.81127519227386 0.0
  endloop
endfacet
facet normal 1.0228625496437344e-17 4.390013950593686e-17 -1.0
  outer loop
    vertex 25.999999999999996 15.81127519227386 0.0
    vertex 23.77645713530756 20.70905267114106 7.049916206369744e-16
    vertex 24.148050297095267 20.582913789807712 1.0574874309554614e-15
  endloop
endfacet
facet normal 1.0228625496437344e-17 4.390013950593686e-17 -1.0
  outer loop
    vertex 25.999999999999996 15.81127519227386 0.0
    vertex 24.148050297095267 20.582913789807712 1.0574874309554614e-15
    vertex 24.499999999999996 20.409351403627166 1.4099832412739487e-15
  endloop
endfacet
facet normal 1.0228625496437344e-17 4.390013950593686e-17 -1.0
  outer loop
    vertex 25.999999999999996 15.81127519227386 0.0
    vertex 24.499999999999996 20.409351403627166 1.4099832412739487e-15
    vertex 24.82628428702616 20.191335213147557 1.4099832412739487e-15
  endloop
endfacet
facet normal 1.0228625496437344e-17 4.390013950593686e-17 -1.0
  outer loop
    vertex 25.999999999999996 15.81127519227386 0.0
    vertex 24.82628428702616 20.191335213147557 1.4099832412739487e-15
    vertex 25.12132034355964 19.932595535833496 1.4099832412739487e-15
  endloop
endfacet
facet normal 1.0228625496437344e-17 4.390013950593686e-17 -1.0
  outer loop
    vertex 25.999999999999996 15.81127519227386 0.0
    vertex 25.12132034355964 19.932595535833496 1.4099832412739487e-15
    vertex 25.380060020873703 19.637559479300013 1.4099832412739487e-15
  endloop
endfacet
facet normal 1.0228625496437344e-17 4.390013950593686e-17 -1.0
  outer loop
    vertex 25.999999999999996 15.81127519227386 0.0
    vertex 25.380060020873703 19.637559479300013 1.4099832412739487e-15
    vertex 25.598076211353316 19.311275192273854 1.4099832412739487e-15
  endloop
endfacet
facet normal 1.0228625496437344e-17 4.390013950593686e-17 -1.0
  outer loop
    vertex 25.999999999999996 15.81127519227386 0.0
    vertex 25.598076211353316 19.311275192273854 1.4099832412739487e-15
    vertex 25.771638597533855 18.95932548936912 1.0574874309554614e-15
  endloop
endfacet
facet normal 1.0228625496437344e-17 4.390013950593686e-17 -1.0
  outer loop
    vertex 25.999999999999996 15.81127519227386 0.0
    vertex 25.771638597533855 18.95932548936912 1.0574874309554614e-15
    vertex 25.8977774788672 18.587732327581413 7.049916206369744e-16
  endloop
endfacet
facet normal 1.0228625496437344e-17 4.390013950593686e-17 -1.0
  outer loop
    vertex 25.999999999999996 15.81127519227386 0.0
    vertex 25.8977774788672 18.587732327581413 7.049916206369744e-16
    vertex 25.97433458412143 18.202853768934006 3.524958103184872e-16
  endloop
endfacet
facet normal 1.0228625496437344e-17 4.390013950593686e-17 -1.0
  outer loop
    vertex 25.999999999999996 15.81127519227386 0.0
    vertex 25.97433458412143 18.202853768934006 3.524958103184872e-16
    vertex 25.999999999999996 17.811275192273854 0.0
  endloop
endfacet
facet normal 1.0228625496437344e-17 4.390013950593686e-17 -1.0
  outer loop
    vertex 28.999999999999993 8.811275192273857 0.0
    vertex 25.999999999999996 15.81127519227386 0.0
    vertex 28.999999999999993 15.81127519227386 0.0
  endloop
endfacet
facet normal 1.0228625496437344e-17 4.390013950593686e-17 -1.0
  outer loop
    vertex 32.99999999999999 6.09389722722171 0.0
    vertex 28.999999999999993 8.811275192273857 0.0
    vertex 36.99999999999999 8.811275192273857 0.0
  endloop
endfacet
facet normal 1.0228625496437344e-17 4.390013950593686e-17 -1.0
  outer loop
    vertex 32.99999999999999 6.09389722722171 0.0
    vertex 36.99999999999999 8.811275192273857 0.0
    vertex 32.99999999999999 0.0 0.0
  endloop
endfacet
facet normal 1.0228625496437344e-17 4.390013950593686e-17 -1.0
  outer loop
    vertex 32.99999999999999 0.0 0.0
    vertex 36.99999999999999 8.811275192273857 0.0
    vertex 36.99999999999999 0.0 0.0
  endloop
endfacet
facet normal 1.0228625496437344e-17 4.390013950593686e-17 -1.0
  outer loop
    vertex 3.0 0.0 0.0
    vertex -0.9999999999999999 1.1068427260309263e-16 -2.5309764326016607e-17
    vertex 3.0 6.09389722722171 0.0
  endloop
endfacet
facet normal -0.0 1.0 -0.0
  outer loop
    vertex 12.999999999999998 20.811275192273854 2.46747067222941e-15
    vertex 22.999999999999996 20.811275192273854 1.9999999999999998
    vertex 22.999999999999996 20.811275192273854 0.0
  endloop
endfacet
facet normal -0.0 1.0 -0.0
  outer loop
    vertex 22.999999999999996 20.811275192273854 1.9999999999999998
    vertex 12.999999999999998 20.811275192273854 2.46747067222941e-15
    vertex 12.999999999999998 20.811275192273854 2.000000000000001
  endloop
endfacet
facet normal 0.9807852804032309 0.19509032201612647 1.8497096503592167e-16
  outer loop
    vertex 25.8977774788672 18.587732327581413 7.049916206369744e-16
    vertex 25.97433458412143 18.202853768934006 2.0
    vertex 25.97433458412143 18.202853768934006 3.524958103184872e-16
  endloop
endfacet
facet normal 0.9807852804032309 0.19509032201612647 1.8497096503592167e-16
  outer loop
    vertex 25.97433458412143 18.202853768934006 2.0
    vertex 25.8977774788672 18.587732327581413 7.049916206369744e-16
    vertex 25.8977774788672 18.587732327581413 2.0000000000000004
  endloop
endfacet
facet normal -0.19509032201612717 0.9807852804032308 -3.5374431622798074e-16
  outer loop
    vertex 12.223542864692437 20.70905267114106 1.9999999999999996
    vertex 12.608421423339843 20.785609776395283 1.762479051592436e-15
    vertex 12.223542864692437 20.70905267114106 1.0574874309554614e-15
  endloop
endfacet
facet normal -0.19509032201612717 0.9807852804032308 -3.5374431622798074e-16
  outer loop
    vertex 12.608421423339843 20.785609776395283 1.762479051592436e-15
    vertex 12.223542864692437 20.70905267114106 1.9999999999999996
    vertex 12.608421423339843 20.785609776395283 2.0
  endloop
endfacet
facet normal -0.06540312923014452 0.9978589232386036 2.1242951211361733e-19
  outer loop
    vertex 12.608421423339843 20.785609776395283 2.0
    vertex 12.999999999999998 20.811275192273854 2.46747067222941e-15
    vertex 12.608421423339843 20.785609776395283 1.762479051592436e-15
  endloop
endfacet
facet normal -0.06540312923014452 0.9978589232386036 2.1242951211361733e-19
  outer loop
    vertex 12.999999999999998 20.811275192273854 2.46747067222941e-15
    vertex 12.608421423339843 20.785609776395283 2.0
    vertex 12.999999999999998 20.811275192273854 2.000000000000001
  endloop
endfacet
facet normal 0.9469301294951047 0.321439465303165 1.9952072097536927e-16
  outer loop
    vertex 25.771638597533855 18.95932548936912 1.0574874309554614e-15
    vertex 25.8977774788672 18.587732327581413 2.0000000000000004
    vertex 25.8977774788672 18.587732327581413 7.049916206369744e-16
  endloop
endfacet
facet normal 0.9469301294951047 0.321439465303165 1.9952072097536927e-16
  outer loop
    vertex 25.8977774788672 18.587732327581413 2.0000000000000004
    vertex 25.771638597533855 18.95932548936912 1.0574874309554614e-15
    vertex 25.771638597533855 18.95932548936912 2.000000000000001
  endloop
endfacet
facet normal -0.9978589232386036 0.06540312923014475 1.0621475605683381e-19
  outer loop
    vertex 10.025665415878567 18.202853768934006 1.9999999999999996
    vertex 9.999999999999998 17.811275192273854 1.4099832412739487e-15
    vertex 9.999999999999998 17.811275192273854 1.9999999999999998
  endloop
endfacet
facet normal -0.9978589232386036 0.06540312923014475 1.0621475605683381e-19
  outer loop
    vertex 9.999999999999998 17.811275192273854 1.4099832412739487e-15
    vertex 10.025665415878567 18.202853768934006 1.9999999999999996
    vertex 10.025665415878567 18.202853768934006 1.0574874309554614e-15
  endloop
endfacet
facet normal -0.9807852804032309 0.19509032201612647 -5.943777960518968e-16
  outer loop
    vertex 10.102222521132793 18.587732327581413 1.999999999999999
    vertex 10.025665415878567 18.202853768934006 1.0574874309554614e-15
    vertex 10.025665415878567 18.202853768934006 1.9999999999999996
  endloop
endfacet
facet normal -0.9807852804032309 0.19509032201612647 -5.943777960518968e-16
  outer loop
    vertex 10.025665415878567 18.202853768934006 1.0574874309554614e-15
    vertex 10.102222521132793 18.587732327581413 1.999999999999999
    vertex 10.102222521132793 18.587732327581413 3.524958103184872e-16
  endloop
endfacet
facet normal -0.9469301294951057 0.32143946530316175 -6.071345339996701e-16
  outer loop
    vertex 10.228361402466138 18.95932548936912 1.9999999999999984
    vertex 10.102222521132793 18.587732327581413 3.524958103184872e-16
    vertex 10.102222521132793 18.587732327581413 1.999999999999999
  endloop
endfacet
facet normal -0.9469301294951057 0.32143946530316175 -6.071345339996701e-16
  outer loop
    vertex 10.102222521132793 18.587732327581413 3.524958103184872e-16
    vertex 10.228361402466138 18.95932548936912 1.9999999999999984
    vertex 10.228361402466138 18.95932548936912 0.0
  endloop
endfacet
facet normal -0.8968727415326885 0.4422886902190013 -6.095030317412146e-16
  outer loop
    vertex 10.401923788646682 19.311275192273854 1.999999999999998
    vertex 10.228361402466138 18.95932548936912 0.0
    vertex 10.228361402466138 18.95932548936912 1.9999999999999984
  endloop
endfacet
facet normal -0.8968727415326885 0.4422886902190013 -6.095030317412146e-16
  outer loop
    vertex 10.228361402466138 18.95932548936912 0.0
    vertex 10.401923788646682 19.311275192273854 1.999999999999998
    vertex 10.401923788646682 19.311275192273854 -3.524958103184872e-16
  endloop
endfacet
facet normal 0.321439465303165 0.9469301294951047 1.9952072097536922e-16
  outer loop
    vertex 23.77645713530756 20.70905267114106 2.0000000000000004
    vertex 24.148050297095267 20.582913789807712 1.0574874309554614e-15
    vertex 23.77645713530756 20.70905267114106 7.049916206369744e-16
  endloop
endfacet
facet normal 0.321439465303165 0.9469301294951047 1.9952072097536922e-16
  outer loop
    vertex 24.148050297095267 20.582913789807712 1.0574874309554614e-15
    vertex 23.77645713530756 20.70905267114106 2.0000000000000004
    vertex 24.148050297095267 20.582913789807712 2.000000000000001
  endloop
endfacet
facet normal -0.8314696123025436 0.5555702330196047 -6.01442763623501e-16
  outer loop
    vertex 10.619939979126293 19.637559479300013 1.999999999999998
    vertex 10.401923788646682 19.311275192273854 -3.524958103184872e-16
    vertex 10.401923788646682 19.311275192273854 1.999999999999998
  endloop
endfacet
facet normal -0.8314696123025436 0.5555702330196047 -6.01442763623501e-16
  outer loop
    vertex 10.401923788646682 19.311275192273854 -3.524958103184872e-16
    vertex 10.619939979126293 19.637559479300013 1.999999999999998
    vertex 10.619939979126293 19.637559479300013 -3.524958103184872e-16
  endloop
endfacet
facet normal -0.7518398074789784 0.6593458151000678 -5.830916430687531e-16
  outer loop
    vertex 10.878679656440356 19.932595535833496 1.999999999999998
    vertex 10.619939979126293 19.637559479300013 -3.524958103184872e-16
    vertex 10.619939979126293 19.637559479300013 1.999999999999998
  endloop
endfacet
facet normal -0.7518398074789784 0.6593458151000678 -5.830916430687531e-16
  outer loop
    vertex 10.619939979126293 19.637559479300013 -3.524958103184872e-16
    vertex 10.878679656440356 19.932595535833496 1.999999999999998
    vertex 10.878679656440356 19.932595535833496 -3.524958103184872e-16
  endloop
endfacet
facet normal -0.6593458151000678 0.7518398074789784 -5.547636628375522e-16
  outer loop
    vertex 10.878679656440356 19.932595535833496 1.999999999999998
    vertex 11.173715712973838 20.191335213147557 -3.524958103184872e-16
    vertex 10.878679656440356 19.932595535833496 -3.524958103184872e-16
  endloop
endfacet
facet normal -0.6593458151000678 0.7518398074789784 -5.547636628375522e-16
  outer loop
    vertex 11.173715712973838 20.191335213147557 -3.524958103184872e-16
    vertex 10.878679656440356 19.932595535833496 1.999999999999998
    vertex 11.173715712973838 20.191335213147557 1.999999999999998
  endloop
endfacet
facet normal -0.5555702330196022 0.8314696123025452 -5.1694352252565645e-16
  outer loop
    vertex 11.173715712973838 20.191335213147557 1.999999999999998
    vertex 11.499999999999998 20.409351403627166 0.0
    vertex 11.173715712973838 20.191335213147557 -3.524958103184872e-16
  endloop
endfacet
facet normal -0.5555702330196022 0.8314696123025452 -5.1694352252565645e-16
  outer loop
    vertex 11.499999999999998 20.409351403627166 0.0
    vertex 11.173715712973838 20.191335213147557 1.999999999999998
    vertex 11.499999999999998 20.409351403627166 1.9999999999999984
  endloop
endfacet
facet normal -0.4422886902190013 0.8968727415326885 -4.702783352195248e-16
  outer loop
    vertex 11.499999999999998 20.409351403627166 1.9999999999999984
    vertex 11.85194970290473 20.582913789807712 3.524958103184872e-16
    vertex 11.499999999999998 20.409351403627166 0.0
  endloop
endfacet
facet normal -0.4422886902190013 0.8968727415326885 -4.702783352195248e-16
  outer loop
    vertex 11.85194970290473 20.582913789807712 3.524958103184872e-16
    vertex 11.499999999999998 20.409351403627166 1.9999999999999984
    vertex 11.85194970290473 20.582913789807712 1.999999999999999
  endloop
endfacet
facet normal -0.321439465303165 0.9469301294951047 -4.1556655521200143e-16
  outer loop
    vertex 11.85194970290473 20.582913789807712 1.999999999999999
    vertex 12.223542864692437 20.70905267114106 1.0574874309554614e-15
    vertex 11.85194970290473 20.582913789807712 3.524958103184872e-16
  endloop
endfacet
facet normal -0.321439465303165 0.9469301294951047 -4.1556655521200143e-16
  outer loop
    vertex 12.223542864692437 20.70905267114106 1.0574874309554614e-15
    vertex 11.85194970290473 20.582913789807712 1.999999999999999
    vertex 12.223542864692437 20.70905267114106 1.9999999999999996
  endloop
endfacet
facet normal 0.06540312923014475 0.9978589232386036 -1.0621475605683367e-19
  outer loop
    vertex 22.999999999999996 20.811275192273854 1.9999999999999998
    vertex 23.39157857666015 20.785609776395283 3.524958103184872e-16
    vertex 22.999999999999996 20.811275192273854 0.0
  endloop
endfacet
facet normal 0.06540312923014475 0.9978589232386036 -1.0621475605683367e-19
  outer loop
    vertex 23.39157857666015 20.785609776395283 3.524958103184872e-16
    vertex 22.999999999999996 20.811275192273854 1.9999999999999998
    vertex 23.39157857666015 20.785609776395283 2.0
  endloop
endfacet
facet normal 0.19509032201612647 0.9807852804032309 1.8497096503592162e-16
  outer loop
    vertex 23.39157857666015 20.785609776395283 2.0
    vertex 23.77645713530756 20.70905267114106 7.049916206369744e-16
    vertex 23.39157857666015 20.785609776395283 3.524958103184872e-16
  endloop
endfacet
facet normal 0.19509032201612647 0.9807852804032309 1.8497096503592162e-16
  outer loop
    vertex 23.77645713530756 20.70905267114106 7.049916206369744e-16
    vertex 23.39157857666015 20.785609776395283 2.0
    vertex 23.77645713530756 20.70905267114106 2.0000000000000004
  endloop
endfacet
facet normal 0.8968727415326913 0.4422886902189955 2.106566220613323e-16
  outer loop
    vertex 25.598076211353316 19.311275192273854 1.4099832412739487e-15
    vertex 25.771638597533855 18.95932548936912 2.000000000000001
    vertex 25.771638597533855 18.95932548936912 1.0574874309554614e-15
  endloop
endfacet
facet normal 0.8968727415326913 0.4422886902189955 2.106566220613323e-16
  outer loop
    vertex 25.771638597533855 18.95932548936912 2.000000000000001
    vertex 25.598076211353316 19.311275192273854 1.4099832412739487e-15
    vertex 25.598076211353316 19.311275192273854 2.0000000000000013
  endloop
endfacet
facet normal 0.4422886902190013 0.8968727415326885 2.1065662206133276e-16
  outer loop
    vertex 24.148050297095267 20.582913789807712 2.000000000000001
    vertex 24.499999999999996 20.409351403627166 1.4099832412739487e-15
    vertex 24.148050297095267 20.582913789807712 1.0574874309554614e-15
  endloop
endfacet
facet normal 0.4422886902190013 0.8968727415326885 2.1065662206133276e-16
  outer loop
    vertex 24.499999999999996 20.409351403627166 1.4099832412739487e-15
    vertex 24.148050297095267 20.582913789807712 2.000000000000001
    vertex 24.499999999999996 20.409351403627166 2.0000000000000013
  endloop
endfacet
facet normal 0.5555702330196022 0.8314696123025452 2.1818812993877756e-16
  outer loop
    vertex 24.499999999999996 20.409351403627166 2.0000000000000013
    vertex 24.82628428702616 20.191335213147557 1.4099832412739487e-15
    vertex 24.499999999999996 20.409351403627166 1.4099832412739487e-15
  endloop
endfacet
facet normal 0.5555702330196022 0.8314696123025452 2.1818812993877756e-16
  outer loop
    vertex 24.82628428702616 20.191335213147557 1.4099832412739487e-15
    vertex 24.499999999999996 20.409351403627166 2.0000000000000013
    vertex 24.82628428702616 20.191335213147557 2.0000000000000013
  endloop
endfacet
facet normal 0.6593458151000678 0.7518398074789784 2.2198637841979174e-16
  outer loop
    vertex 24.82628428702616 20.191335213147557 2.0000000000000013
    vertex 25.12132034355964 19.932595535833496 1.4099832412739487e-15
    vertex 24.82628428702616 20.191335213147557 1.4099832412739487e-15
  endloop
endfacet
facet normal 0.6593458151000678 0.7518398074789784 2.2198637841979174e-16
  outer loop
    vertex 25.12132034355964 19.932595535833496 1.4099832412739487e-15
    vertex 24.82628428702616 20.191335213147557 2.0000000000000013
    vertex 25.12132034355964 19.932595535833496 2.0000000000000013
  endloop
endfacet
facet normal 0.7518398074789784 0.6593458151000678 2.219863784197918e-16
  outer loop
    vertex 25.12132034355964 19.932595535833496 1.4099832412739487e-15
    vertex 25.380060020873703 19.637559479300013 2.0000000000000013
    vertex 25.380060020873703 19.637559479300013 1.4099832412739487e-15
  endloop
endfacet
facet normal 0.7518398074789784 0.6593458151000678 2.219863784197918e-16
  outer loop
    vertex 25.380060020873703 19.637559479300013 2.0000000000000013
    vertex 25.12132034355964 19.932595535833496 1.4099832412739487e-15
    vertex 25.12132034355964 19.932595535833496 2.0000000000000013
  endloop
endfacet
facet normal 0.831469612302542 0.5555702330196072 2.1818812993877785e-16
  outer loop
    vertex 25.380060020873703 19.637559479300013 1.4099832412739487e-15
    vertex 25.598076211353316 19.311275192273854 2.0000000000000013
    vertex 25.598076211353316 19.311275192273854 1.4099832412739487e-15
  endloop
endfacet
facet normal 0.831469612302542 0.5555702330196072 2.1818812993877785e-16
  outer loop
    vertex 25.598076211353316 19.311275192273854 2.0000000000000013
    vertex 25.380060020873703 19.637559479300013 1.4099832412739487e-15
    vertex 25.380060020873703 19.637559479300013 2.0000000000000013
  endloop
endfacet
facet normal 0.9978589232386036 0.06540312923014474 -1.0621475605630431e-19
  outer loop
    vertex 25.97433458412143 18.202853768934006 3.524958103184872e-16
    vertex 25.999999999999996 17.811275192273854 1.9999999999999998
    vertex 25.999999999999996 17.811275192273854 0.0
  endloop
endfacet
facet normal 0.9978589232386036 0.06540312923014474 -1.0621475605630431e-19
  outer loop
    vertex 25.999999999999996 17.811275192273854 1.9999999999999998
    vertex 25.97433458412143 18.202853768934006 3.524958103184872e-16
    vertex 25.97433458412143 18.202853768934006 2.0
  endloop
endfacet
facet normal 1.0 -0.0 -0.0
  outer loop
    vertex 9.999999999999998 15.81127519227386 2.000000000000001
    vertex 9.999999999999998 8.811275192273857 15.999999999999996
    vertex 9.999999999999998 8.811275192273857 1.9999999999999998
  endloop
endfacet
facet normal -1.0 0.0 0.0
  outer loop
    vertex 9.999999999999998 17.811275192273854 1.9999999999999998
    vertex 9.999999999999998 15.81127519227386 9.98738129235714e-16
    vertex 9.999999999999998 15.81127519227386 2.000000000000001
  endloop
endfacet
facet normal -1.0 0.0 0.0
  outer loop
    vertex 9.999999999999998 15.81127519227386 9.98738129235714e-16
    vertex 9.999999999999998 17.811275192273854 1.9999999999999998
    vertex 9.999999999999998 17.811275192273854 1.4099832412739487e-15
  endloop
endfacet
facet normal -9.878713491112152e-32 0.8944271909999159 0.44721359549995826
  outer loop
    vertex 7.0 8.811275192273857 15.999999999999996
    vertex 9.999999999999998 15.81127519227386 2.000000000000001
    vertex 7.0 15.81127519227386 2.000000000000001
  endloop
endfacet
facet normal -9.878713491112152e-32 0.8944271909999159 0.44721359549995826
  outer loop
    vertex 9.999999999999998 15.81127519227386 2.000000000000001
    vertex 7.0 8.811275192273857 15.999999999999996
    vertex 9.999999999999998 8.811275192273857 15.999999999999996
  endloop
endfacet
facet normal -0.0 1.0 -0.0
  outer loop
    vertex 7.0 8.811275192273857 15.999999999999996
    vertex 9.999999999999998 8.811275192273857 1.9999999999999998
    vertex 7.0 8.811275192273857 1.9999999999999998
  endloop
endfacet
facet normal -0.0 1.0 -0.0
  outer loop
    vertex 9.999999999999998 8.811275192273857 1.9999999999999998
    vertex 7.0 8.811275192273857 15.999999999999996
    vertex 9.999999999999998 8.811275192273857 15.999999999999996
  endloop
endfacet
facet normal -1.0 0.0 0.0
  outer loop
    vertex 25.999999999999996 15.81127519227386 2.000000000000001
    vertex 25.999999999999996 8.811275192273857 1.9999999999999998
    vertex 25.999999999999996 8.811275192273857 15.999999999999996
  endloop
endfacet
facet normal 1.0 -0.0 -0.0
  outer loop
    vertex 28.999999999999993 15.81127519227386 2.000000000000001
    vertex 28.999999999999993 8.811275192273857 15.999999999999996
    vertex 28.999999999999993 8.811275192273857 1.9999999999999998
  endloop
endfacet
facet normal -0.0 0.8944271909999159 0.4472135954999581
  outer loop
    vertex 25.999999999999996 8.811275192273857 15.999999999999996
    vertex 28.999999999999993 15.81127519227386 2.000000000000001
    vertex 25.999999999999996 15.81127519227386 2.000000000000001
  endloop
endfacet
facet normal -0.0 0.8944271909999159 0.4472135954999581
  outer loop
    vertex 28.999999999999993 15.81127519227386 2.000000000000001
    vertex 25.999999999999996 8.811275192273857 15.999999999999996
    vertex 28.999999999999993 8.811275192273857 15.999999999999996
  endloop
endfacet
facet normal -0.0 1.0 -0.0
  outer loop
    vertex 25.999999999999996 8.811275192273857 15.999999999999996
    vertex 28.999999999999993 8.811275192273857 1.9999999999999998
    vertex 25.999999999999996 8.811275192273857 1.9999999999999998
  endloop
endfacet
facet normal -0.0 1.0 -0.0
  outer loop
    vertex 28.999999999999993 8.811275192273857 1.9999999999999998
    vertex 25.999999999999996 8.811275192273857 15.999999999999996
    vertex 28.999999999999993 8.811275192273857 15.999999999999996
  endloop
endfacet
facet normal -0.0 -1.5106963299363733e-16 1.0
  outer loop
    vertex 28.999999999999993 8.811275192273857 1.9999999999999998
    vertex 25.999999999999996 15.81127519227386 2.000000000000001
    vertex 25.999999999999996 8.811275192273857 1.9999999999999998
  endloop
endfacet
facet normal -0.0 -1.5106963299363733e-16 1.0
  outer loop
    vertex 25.999999999999996 15.81127519227386 2.000000000000001
    vertex 28.999999999999993 8.811275192273857 1.9999999999999998
    vertex 28.999999999999993 15.81127519227386 2.000000000000001
  endloop
endfacet
facet normal -1.0765620112844828e-16 1.240581383661219e-17 1.0
  outer loop
    vertex 25.999999999999996 8.811275192273857 1.9999999999999998
    vertex 9.999999999999998 15.81127519227386 2.000000000000001
    vertex 9.999999999999998 8.811275192273857 1.9999999999999998
  endloop
endfacet
facet normal -1.0765620112844828e-16 1.240581383661219e-17 1.0
  outer loop
    vertex 9.999999999999998 15.81127519227386 2.000000000000001
    vertex 25.999999999999996 8.811275192273857 1.9999999999999998
    vertex 17.0989055651673 13.025769992193629 2.000000000000001
  endloop
endfacet
facet normal -1.0765620112844828e-16 1.240581383661219e-17 1.0
  outer loop
    vertex 9.999999999999998 15.81127519227386 2.000000000000001
    vertex 17.0989055651673 13.025769992193629 2.000000000000001
    vertex 9.999999999999998 17.811275192273854 1.9999999999999998
  endloop
endfacet
facet normal -1.0765620112844828e-16 1.240581383661219e-17 1.0
  outer loop
    vertex 9.999999999999998 17.811275192273854 1.9999999999999998
    vertex 17.0989055651673 13.025769992193629 2.000000000000001
    vertex 16.667486862559393 13.319830007713529 2.000000000000001
  endloop
endfacet
facet normal -1.0765620112844828e-16 1.240581383661219e-17 1.0
  outer loop
    vertex 9.999999999999998 17.811275192273854 1.9999999999999998
    vertex 16.667486862559393 13.319830007713529 2.000000000000001
    vertex 10.025665415878567 18.202853768934006 1.9999999999999996
  endloop
endfacet
facet normal -1.0765620112844828e-16 1.240581383661219e-17 1.0
  outer loop
    vertex 10.025665415878567 18.202853768934006 1.9999999999999996
    vertex 16.667486862559393 13.319830007713529 2.000000000000001
    vertex 10.102222521132793 18.587732327581413 1.999999999999999
  endloop
endfacet
facet normal -1.0765620112844828e-16 1.240581383661219e-17 1.0
  outer loop
    vertex 10.102222521132793 18.587732327581413 1.999999999999999
    vertex 16.667486862559393 13.319830007713529 2.000000000000001
    vertex 10.228361402466138 18.95932548936912 1.9999999999999984
  endloop
endfacet
facet normal -1.0765620112844828e-16 1.240581383661219e-17 1.0
  outer loop
    vertex 10.228361402466138 18.95932548936912 1.9999999999999984
    vertex 16.667486862559393 13.319830007713529 2.000000000000001
    vertex 10.401923788646682 19.311275192273854 1.999999999999998
  endloop
endfacet
facet normal -1.0765620112844828e-16 1.240581383661219e-17 1.0
  outer loop
    vertex 10.401923788646682 19.311275192273854 1.999999999999998
    vertex 16.667486862559393 13.319830007713529 2.000000000000001
    vertex 10.619939979126293 19.637559479300013 1.999999999999998
  endloop
endfacet
facet normal -1.0765620112844828e-16 1.240581383661219e-17 1.0
  outer loop
    vertex 10.619939979126293 19.637559479300013 1.999999999999998
    vertex 16.667486862559393 13.319830007713529 2.000000000000001
    vertex 10.878679656440356 19.932595535833496 1.999999999999998
  endloop
endfacet
facet normal -1.0765620112844828e-16 1.240581383661219e-17 1.0
  outer loop
    vertex 10.878679656440356 19.932595535833496 1.999999999999998
    vertex 16.667486862559393 13.319830007713529 2.000000000000001
    vertex 16.326876728185983 13.715529547831514 2.000000000000001
  endloop
endfacet
facet normal -1.0765620112844828e-16 1.240581383661219e-17 1.0
  outer loop
    vertex 10.878679656440356 19.932595535833496 1.999999999999998
    vertex 16.326876728185983 13.715529547831514 2.000000000000001
    vertex 11.173715712973838 20.191335213147557 1.999999999999998
  endloop
endfacet
facet normal -1.0765620112844828e-16 1.240581383661219e-17 1.0
  outer loop
    vertex 11.173715712973838 20.191335213147557 1.999999999999998
    vertex 16.326876728185983 13.715529547831514 2.000000000000001
    vertex 11.499999999999998 20.409351403627166 1.9999999999999984
  endloop
endfacet
facet normal -1.0765620112844828e-16 1.240581383661219e-17 1.0
  outer loop
    vertex 11.499999999999998 20.409351403627166 1.9999999999999984
    vertex 16.326876728185983 13.715529547831514 2.000000000000001
    vertex 11.85194970290473 20.582913789807712 1.999999999999999
  endloop
endfacet
facet normal -1.0765620112844828e-16 1.240581383661219e-17 1.0
  outer loop
    vertex 11.85194970290473 20.582913789807712 1.999999999999999
    vertex 16.326876728185983 13.715529547831514 2.000000000000001
    vertex 12.223542864692437 20.70905267114106 1.9999999999999996
  endloop
endfacet
facet normal -1.0765620112844828e-16 1.240581383661219e-17 1.0
  outer loop
    vertex 12.223542864692437 20.70905267114106 1.9999999999999996
    vertex 16.326876728185983 13.715529547831514 2.000000000000001
    vertex 12.608421423339843 20.785609776395283 2.0
  endloop
endfacet
facet normal -1.0765620112844828e-16 1.240581383661219e-17 1.0
  outer loop
    vertex 12.608421423339843 20.785609776395283 2.0
    vertex 16.326876728185983 13.715529547831514 2.000000000000001
    vertex 16.100287179819766 14.185902342812945 2.000000000000001
  endloop
endfacet
facet normal -1.0765620112844828e-16 1.240581383661219e-17 1.0
  outer loop
    vertex 12.608421423339843 20.785609776395283 2.0
    vertex 16.100287179819766 14.185902342812945 2.000000000000001
    vertex 12.999999999999998 20.811275192273854 2.000000000000001
  endloop
endfacet
facet normal -1.0765620112844828e-16 1.240581383661219e-17 1.0
  outer loop
    vertex 12.999999999999998 20.811275192273854 2.000000000000001
    vertex 16.100287179819766 14.185902342812945 2.000000000000001
    vertex 16.003159920724954 14.698893264007642 2.000000000000001
  endloop
endfacet
facet normal -1.0765620112844828e-16 1.240581383661219e-17 1.0
  outer loop
    vertex 17.0989055651673 13.025769992193629 2.000000000000001
    vertex 25.999999999999996 8.811275192273857 1.9999999999999998
    vertex 17.59173236438009 12.853389205372341 2.000000000000001
  endloop
endfacet
facet normal -1.0765620112844828e-16 1.240581383661219e-17 1.0
  outer loop
    vertex 17.59173236438009 12.853389205372341 2.000000000000001
    vertex 25.999999999999996 8.811275192273857 1.9999999999999998
    vertex 18.112381928266213 12.814435112998813 2.000000000000001
  endloop
endfacet
facet normal -1.0765620112844828e-16 1.240581383661219e-17 1.0
  outer loop
    vertex 18.112381928266213 12.814435112998813 2.000000000000001
    vertex 25.999999999999996 8.811275192273857 1.9999999999999998
    vertex 18.62537284946091 12.911562372093623 2.000000000000001
  endloop
endfacet
facet normal -1.0765620112844828e-16 1.240581383661219e-17 1.0
  outer loop
    vertex 18.62537284946091 12.911562372093623 2.000000000000001
    vertex 25.999999999999996 8.811275192273857 1.9999999999999998
    vertex 19.095745644442342 13.138151920459844 2.000000000000001
  endloop
endfacet
facet normal -1.0765620112844828e-16 1.240581383661219e-17 1.0
  outer loop
    vertex 19.095745644442342 13.138151920459844 2.000000000000001
    vertex 25.999999999999996 8.811275192273857 1.9999999999999998
    vertex 19.491445184560327 13.478762054833252 2.000000000000001
  endloop
endfacet
facet normal -1.0765620112844828e-16 1.240581383661219e-17 1.0
  outer loop
    vertex 19.491445184560327 13.478762054833252 2.000000000000001
    vertex 25.999999999999996 8.811275192273857 1.9999999999999998
    vertex 19.785505200080227 13.910180757441157 2.000000000000001
  endloop
endfacet
facet normal -1.0765620112844828e-16 1.240581383661219e-17 1.0
  outer loop
    vertex 19.785505200080227 13.910180757441157 2.000000000000001
    vertex 25.999999999999996 8.811275192273857 1.9999999999999998
    vertex 19.957885986901516 14.40300755665395 2.000000000000001
  endloop
endfacet
facet normal -1.0765620112844828e-16 1.240581383661219e-17 1.0
  outer loop
    vertex 19.957885986901516 14.40300755665395 2.000000000000001
    vertex 25.999999999999996 8.811275192273857 1.9999999999999998
    vertex 19.996840079275042 14.923657120540074 2.000000000000001
  endloop
endfacet
facet normal -1.0765620112844828e-16 1.240581383661219e-17 1.0
  outer loop
    vertex 19.996840079275042 14.923657120540074 2.000000000000001
    vertex 25.999999999999996 8.811275192273857 1.9999999999999998
    vertex 22.999999999999996 20.811275192273854 1.9999999999999998
  endloop
endfacet
facet normal -1.0765620112844828e-16 1.240581383661219e-17 1.0
  outer loop
    vertex 22.999999999999996 20.811275192273854 1.9999999999999998
    vertex 25.999999999999996 8.811275192273857 1.9999999999999998
    vertex 23.39157857666015 20.785609776395283 2.0
  endloop
endfacet
facet normal -1.0765620112844828e-16 1.240581383661219e-17 1.0
  outer loop
    vertex 23.39157857666015 20.785609776395283 2.0
    vertex 25.999999999999996 8.811275192273857 1.9999999999999998
    vertex 23.77645713530756 20.70905267114106 2.0000000000000004
  endloop
endfacet
facet normal -1.0765620112844828e-16 1.240581383661219e-17 1.0
  outer loop
    vertex 23.77645713530756 20.70905267114106 2.0000000000000004
    vertex 25.999999999999996 8.811275192273857 1.9999999999999998
    vertex 24.148050297095267 20.582913789807712 2.000000000000001
  endloop
endfacet
facet normal -1.0765620112844828e-16 1.240581383661219e-17 1.0
  outer loop
    vertex 24.148050297095267 20.582913789807712 2.000000000000001
    vertex 25.999999999999996 8.811275192273857 1.9999999999999998
    vertex 24.499999999999996 20.409351403627166 2.0000000000000013
  endloop
endfacet
facet normal -1.0765620112844828e-16 1.240581383661219e-17 1.0
  outer loop
    vertex 24.499999999999996 20.409351403627166 2.0000000000000013
    vertex 25.999999999999996 8.811275192273857 1.9999999999999998
    vertex 24.82628428702616 20.191335213147557 2.0000000000000013
  endloop
endfacet
facet normal -1.0765620112844828e-16 1.240581383661219e-17 1.0
  outer loop
    vertex 24.82628428702616 20.191335213147557 2.0000000000000013
    vertex 25.999999999999996 8.811275192273857 1.9999999999999998
    vertex 25.12132034355964 19.932595535833496 2.0000000000000013
  endloop
endfacet
facet normal -1.0765620112844828e-16 1.240581383661219e-17 1.0
  outer loop
    vertex 25.12132034355964 19.932595535833496 2.0000000000000013
    vertex 25.999999999999996 8.811275192273857 1.9999999999999998
    vertex 25.380060020873703 19.637559479300013 2.0000000000000013
  endloop
endfacet
facet normal -1.0765620112844828e-16 1.240581383661219e-17 1.0
  outer loop
    vertex 25.380060020873703 19.637559479300013 2.0000000000000013
    vertex 25.999999999999996 8.811275192273857 1.9999999999999998
    vertex 25.598076211353316 19.311275192273854 2.0000000000000013
  endloop
endfacet
facet normal -1.0765620112844828e-16 1.240581383661219e-17 1.0
  outer loop
    vertex 25.598076211353316 19.311275192273854 2.0000000000000013
    vertex 25.999999999999996 8.811275192273857 1.9999999999999998
    vertex 25.771638597533855 18.95932548936912 2.000000000000001
  endloop
endfacet
facet normal -1.0765620112844828e-16 1.240581383661219e-17 1.0
  outer loop
    vertex 25.771638597533855 18.95932548936912 2.000000000000001
    vertex 25.999999999999996 8.811275192273857 1.9999999999999998
    vertex 25.8977774788672 18.587732327581413 2.0000000000000004
  endloop
endfacet
facet normal -1.0765620112844828e-16 1.240581383661219e-17 1.0
  outer loop
    vertex 25.8977774788672 18.587732327581413 2.0000000000000004
    vertex 25.999999999999996 8.811275192273857 1.9999999999999998
    vertex 25.97433458412143 18.202853768934006 2.0
  endloop
endfacet
facet normal -1.0765620112844828e-16 1.240581383661219e-17 1.0
  outer loop
    vertex 25.97433458412143 18.202853768934006 2.0
    vertex 25.999999999999996 8.811275192273857 1.9999999999999998
    vertex 25.999999999999996 17.811275192273854 1.9999999999999998
  endloop
endfacet
facet normal -1.0765620112844828e-16 1.240581383661219e-17 1.0
  outer loop
    vertex 25.999999999999996 17.811275192273854 1.9999999999999998
    vertex 25.999999999999996 8.811275192273857 1.9999999999999998
    vertex 25.999999999999996 15.81127519227386 2.000000000000001
  endloop
endfacet
facet normal -1.0765620112844828e-16 1.240581383661219e-17 1.0
  outer loop
    vertex 12.999999999999998 20.811275192273854 2.000000000000001
    vertex 16.904254355557654 16.48439846408787 2.000000000000001
    vertex 22.999999999999996 20.811275192273854 1.9999999999999998
  endloop
endfacet
facet normal -1.0765620112844828e-16 1.240581383661219e-17 1.0
  outer loop
    vertex 16.904254355557654 16.48439846408787 2.000000000000001
    vertex 12.999999999999998 20.811275192273854 2.000000000000001
    vertex 16.50855481543967 16.143788329714464 2.000000000000001
  endloop
endfacet
facet normal -1.0765620112844828e-16 1.240581383661219e-17 1.0
  outer loop
    vertex 16.50855481543967 16.143788329714464 2.000000000000001
    vertex 12.999999999999998 20.811275192273854 2.000000000000001
    vertex 16.21449479991977 15.712369627106558 2.000000000000001
  endloop
endfacet
facet normal -1.0765620112844828e-16 1.240581383661219e-17 1.0
  outer loop
    vertex 16.21449479991977 15.712369627106558 2.000000000000001
    vertex 12.999999999999998 20.811275192273854 2.000000000000001
    vertex 16.04211401309848 15.219542827893763 2.000000000000001
  endloop
endfacet
facet normal -1.0765620112844828e-16 1.240581383661219e-17 1.0
  outer loop
    vertex 16.04211401309848 15.219542827893763 2.000000000000001
    vertex 12.999999999999998 20.811275192273854 2.000000000000001
    vertex 16.003159920724954 14.698893264007642 2.000000000000001
  endloop
endfacet
facet normal -1.0765620112844828e-16 1.240581383661219e-17 1.0
  outer loop
    vertex 22.999999999999996 20.811275192273854 1.9999999999999998
    vertex 16.904254355557654 16.48439846408787 2.000000000000001
    vertex 17.374627150539084 16.71098801245409 2.000000000000001
  endloop
endfacet
facet normal -1.0765620112844828e-16 1.240581383661219e-17 1.0
  outer loop
    vertex 22.999999999999996 20.811275192273854 1.9999999999999998
    vertex 17.374627150539084 16.71098801245409 2.000000000000001
    vertex 17.887618071733783 16.808115271548903 2.000000000000001
  endloop
endfacet
facet normal -1.0765620112844828e-16 1.240581383661219e-17 1.0
  outer loop
    vertex 22.999999999999996 20.811275192273854 1.9999999999999998
    vertex 17.887618071733783 16.808115271548903 2.000000000000001
    vertex 18.408267635619904 16.769161179175377 2.000000000000001
  endloop
endfacet
facet normal -1.0765620112844828e-16 1.240581383661219e-17 1.0
  outer loop
    vertex 22.999999999999996 20.811275192273854 1.9999999999999998
    vertex 18.408267635619904 16.769161179175377 2.000000000000001
    vertex 18.901094434832697 16.596780392354088 2.000000000000001
  endloop
endfacet
facet normal -1.0765620112844828e-16 1.240581383661219e-17 1.0
  outer loop
    vertex 22.999999999999996 20.811275192273854 1.9999999999999998
    vertex 18.901094434832697 16.596780392354088 2.000000000000001
    vertex 19.332513137440603 16.302720376834188 2.000000000000001
  endloop
endfacet
facet normal -1.0765620112844828e-16 1.240581383661219e-17 1.0
  outer loop
    vertex 22.999999999999996 20.811275192273854 1.9999999999999998
    vertex 19.332513137440603 16.302720376834188 2.000000000000001
    vertex 19.67312327181401 15.907020836716203 2.000000000000001
  endloop
endfacet
facet normal -1.0765620112844828e-16 1.240581383661219e-17 1.0
  outer loop
    vertex 22.999999999999996 20.811275192273854 1.9999999999999998
    vertex 19.67312327181401 15.907020836716203 2.000000000000001
    vertex 19.89971282018023 15.436648041734768 2.000000000000001
  endloop
endfacet
facet normal -1.0765620112844828e-16 1.240581383661219e-17 1.0
  outer loop
    vertex 22.999999999999996 20.811275192273854 1.9999999999999998
    vertex 19.89971282018023 15.436648041734768 2.000000000000001
    vertex 19.996840079275042 14.923657120540074 2.000000000000001
  endloop
endfacet
facet normal 1.0 -0.0 -0.0
  outer loop
    vertex 25.999999999999996 17.811275192273854 0.0
    vertex 25.999999999999996 15.81127519227386 2.000000000000001
    vertex 25.999999999999996 15.81127519227386 0.0
  endloop
endfacet
facet normal 1.0 -0.0 -0.0
  outer loop
    vertex 25.999999999999996 15.81127519227386 2.000000000000001
    vertex 25.999999999999996 17.811275192273854 0.0
    vertex 25.999999999999996 17.811275192273854 1.9999999999999998
  endloop
endfacet
facet normal -1.0 0.0 0.0
  outer loop
    vertex 7.0 15.81127519227386 2.000000000000001
    vertex 7.0 8.811275192273857 1.9999999999999998
    vertex 7.0 8.811275192273857 15.999999999999996
  endloop
endfacet
facet normal -1.0 0.0 0.0
  outer loop
    vertex 7.0 15.81127519227386 2.000000000000001
    vertex 7.0 8.811275192273857 0.0
    vertex 7.0 8.811275192273857 1.9999999999999998
  endloop
endfacet
facet normal -1.0 0.0 0.0
  outer loop
    vertex 7.0 8.811275192273857 0.0
    vertex 7.0 15.81127519227386 2.000000000000001
    vertex 7.0 15.81127519227386 9.98738129235714e-16
  endloop
endfacet
facet normal 1.0 -0.0 -0.0
  outer loop
    vertex 28.999999999999993 15.81127519227386 0.0
    vertex 28.999999999999993 8.811275192273857 1.9999999999999998
    vertex 28.999999999999993 8.811275192273857 0.0
  endloop
endfacet
facet normal 1.0 -0.0 -0.0
  outer loop
    vertex 28.999999999999993 8.811275192273857 1.9999999999999998
    vertex 28.999999999999993 15.81127519227386 0.0
    vertex 28.999999999999993 15.81127519227386 2.000000000000001
  endloop
endfacet
facet normal -0.0 1.0 -0.0
  outer loop
    vertex 25.999999999999996 15.81127519227386 2.000000000000001
    vertex 28.999999999999993 15.81127519227386 0.0
    vertex 25.999999999999996 15.81127519227386 0.0
  endloop
endfacet
facet normal -0.0 1.0 -0.0
  outer loop
    vertex 28.999999999999993 15.81127519227386 0.0
    vertex 25.999999999999996 15.81127519227386 2.000000000000001
    vertex 28.999999999999993 15.81127519227386 2.000000000000001
  endloop
endfacet
facet normal -0.0 1.0 -0.0
  outer loop
    vertex 7.0 15.81127519227386 2.000000000000001
    vertex 9.999999999999998 15.81127519227386 9.98738129235714e-16
    vertex 7.0 15.81127519227386 9.98738129235714e-16
  endloop
endfacet
facet normal -0.0 1.0 -0.0
  outer loop
    vertex 9.999999999999998 15.81127519227386 9.98738129235714e-16
    vertex 7.0 15.81127519227386 2.000000000000001
    vertex 9.999999999999998 15.81127519227386 2.000000000000001
  endloop
endfacet
facet normal -0.18603020865549028 0.9825440252057894 -0.0
  outer loop
    vertex 18.112381928266213 12.814435112998813 2.000000000000001
    vertex 18.62537284946091 12.911562372093623 1.0574874309554614e-15
    vertex 18.112381928266213 12.814435112998813 1.0574874309554614e-15
  endloop
endfacet
facet normal -0.18603020865549028 0.9825440252057894 -0.0
  outer loop
    vertex 18.62537284946091 12.911562372093623 1.0574874309554614e-15
    vertex 18.112381928266213 12.814435112998813 2.000000000000001
    vertex 18.62537284946091 12.911562372093623 2.000000000000001
  endloop
endfacet
facet normal -0.4339924893852283 0.9009164884478542 -0.0
  outer loop
    vertex 18.62537284946091 12.911562372093623 2.000000000000001
    vertex 19.095745644442342 13.138151920459844 1.0574874309554614e-15
    vertex 18.62537284946091 12.911562372093623 1.0574874309554614e-15
  endloop
endfacet
facet normal -0.4339924893852283 0.9009164884478542 -0.0
  outer loop
    vertex 19.095745644442342 13.138151920459844 1.0574874309554614e-15
    vertex 18.62537284946091 12.911562372093623 2.000000000000001
    vertex 19.095745644442342 13.138151920459844 2.000000000000001
  endloop
endfacet
facet normal -0.6523788991698666 0.7578929818370884 -0.0
  outer loop
    vertex 19.095745644442342 13.138151920459844 2.000000000000001
    vertex 19.491445184560327 13.478762054833252 1.0574874309554614e-15
    vertex 19.095745644442342 13.138151920459844 1.0574874309554614e-15
  endloop
endfacet
facet normal -0.6523788991698666 0.7578929818370884 -0.0
  outer loop
    vertex 19.491445184560327 13.478762054833252 1.0574874309554614e-15
    vertex 19.095745644442342 13.138151920459844 2.000000000000001
    vertex 19.491445184560327 13.478762054833252 2.000000000000001
  endloop
endfacet
facet normal -0.8263067650831839 0.5632203209914962 -0.0
  outer loop
    vertex 19.785505200080227 13.910180757441157 2.000000000000001
    vertex 19.491445184560327 13.478762054833252 1.0574874309554614e-15
    vertex 19.491445184560327 13.478762054833252 2.000000000000001
  endloop
endfacet
facet normal -0.8263067650831839 0.5632203209914962 -0.0
  outer loop
    vertex 19.491445184560327 13.478762054833252 1.0574874309554614e-15
    vertex 19.785505200080227 13.910180757441157 2.000000000000001
    vertex 19.785505200080227 13.910180757441157 1.0574874309554614e-15
  endloop
endfacet
facet normal -0.9439231904925756 0.330165126035923 -0.0
  outer loop
    vertex 19.957885986901516 14.40300755665395 2.000000000000001
    vertex 19.785505200080227 13.910180757441157 1.0574874309554614e-15
    vertex 19.785505200080227 13.910180757441157 2.000000000000001
  endloop
endfacet
facet normal -0.9439231904925756 0.330165126035923 -0.0
  outer loop
    vertex 19.785505200080227 13.910180757441157 1.0574874309554614e-15
    vertex 19.957885986901516 14.40300755665395 2.000000000000001
    vertex 19.957885986901516 14.40300755665395 1.0574874309554614e-15
  endloop
endfacet
facet normal -0.997212810376726 0.07460972336466641 -0.0
  outer loop
    vertex 19.996840079275042 14.923657120540074 2.000000000000001
    vertex 19.957885986901516 14.40300755665395 1.0574874309554614e-15
    vertex 19.957885986901516 14.40300755665395 2.000000000000001
  endloop
endfacet
facet normal -0.997212810376726 0.07460972336466641 -0.0
  outer loop
    vertex 19.957885986901516 14.40300755665395 1.0574874309554614e-15
    vertex 19.996840079275042 14.923657120540074 2.000000000000001
    vertex 19.996840079275042 14.923657120540074 1.0574874309554614e-15
  endloop
endfacet
facet normal -0.9825440252057894 -0.18603020865549028 -0.0
  outer loop
    vertex 19.89971282018023 15.436648041734768 2.000000000000001
    vertex 19.996840079275042 14.923657120540074 1.0574874309554614e-15
    vertex 19.996840079275042 14.923657120540074 2.000000000000001
  endloop
endfacet
facet normal -0.9825440252057894 -0.18603020865549028 -0.0
  outer loop
    vertex 19.996840079275042 14.923657120540074 1.0574874309554614e-15
    vertex 19.89971282018023 15.436648041734768 2.000000000000001
    vertex 19.89971282018023 15.436648041734768 1.0574874309554614e-15
  endloop
endfacet
facet normal -0.9009164884478542 -0.4339924893852283 -0.0
  outer loop
    vertex 19.67312327181401 15.907020836716203 2.000000000000001
    vertex 19.89971282018023 15.436648041734768 1.0574874309554614e-15
    vertex 19.89971282018023 15.436648041734768 2.000000000000001
  endloop
endfacet
facet normal -0.9009164884478542 -0.4339924893852283 -0.0
  outer loop
    vertex 19.89971282018023 15.436648041734768 1.0574874309554614e-15
    vertex 19.67312327181401 15.907020836716203 2.000000000000001
    vertex 19.67312327181401 15.907020836716203 1.0574874309554614e-15
  endloop
endfacet
facet normal -0.7578929818370884 -0.6523788991698666 -0.0
  outer loop
    vertex 19.332513137440603 16.302720376834188 2.000000000000001
    vertex 19.67312327181401 15.907020836716203 1.0574874309554614e-15
    vertex 19.67312327181401 15.907020836716203 2.000000000000001
  endloop
endfacet
facet normal -0.7578929818370884 -0.6523788991698666 -0.0
  outer loop
    vertex 19.67312327181401 15.907020836716203 1.0574874309554614e-15
    vertex 19.332513137440603 16.302720376834188 2.000000000000001
    vertex 19.332513137440603 16.302720376834188 1.0574874309554614e-15
  endloop
endfacet
facet normal -0.5632203209914962 -0.8263067650831839 -0.0
  outer loop
    vertex 19.332513137440603 16.302720376834188 2.000000000000001
    vertex 18.901094434832697 16.596780392354088 1.0574874309554614e-15
    vertex 19.332513137440603 16.302720376834188 1.0574874309554614e-15
  endloop
endfacet
facet normal -0.5632203209914962 -0.8263067650831839 -0.0
  outer loop
    vertex 18.901094434832697 16.596780392354088 1.0574874309554614e-15
    vertex 19.332513137440603 16.302720376834188 2.000000000000001
    vertex 18.901094434832697 16.596780392354088 2.000000000000001
  endloop
endfacet
facet normal -0.330165126035923 -0.9439231904925756 -0.0
  outer loop
    vertex 18.901094434832697 16.596780392354088 2.000000000000001
    vertex 18.408267635619904 16.769161179175377 1.0574874309554614e-15
    vertex 18.901094434832697 16.596780392354088 1.0574874309554614e-15
  endloop
endfacet
facet normal -0.330165126035923 -0.9439231904925756 -0.0
  outer loop
    vertex 18.408267635619904 16.769161179175377 1.0574874309554614e-15
    vertex 18.901094434832697 16.596780392354088 2.000000000000001
    vertex 18.408267635619904 16.769161179175377 2.000000000000001
  endloop
endfacet
facet normal -0.07460972336466641 -0.997212810376726 -0.0
  outer loop
    vertex 18.408267635619904 16.769161179175377 2.000000000000001
    vertex 17.887618071733783 16.808115271548903 1.0574874309554614e-15
    vertex 18.408267635619904 16.769161179175377 1.0574874309554614e-15
  endloop
endfacet
facet normal -0.07460972336466641 -0.997212810376726 -0.0
  outer loop
    vertex 17.887618071733783 16.808115271548903 1.0574874309554614e-15
    vertex 18.408267635619904 16.769161179175377 2.000000000000001
    vertex 17.887618071733783 16.808115271548903 2.000000000000001
  endloop
endfacet
facet normal 0.18603020865548928 -0.9825440252057895 -0.0
  outer loop
    vertex 17.887618071733783 16.808115271548903 2.000000000000001
    vertex 17.374627150539084 16.71098801245409 1.0574874309554614e-15
    vertex 17.887618071733783 16.808115271548903 1.0574874309554614e-15
  endloop
endfacet
facet normal 0.18603020865548928 -0.9825440252057895 -0.0
  outer loop
    vertex 17.374627150539084 16.71098801245409 1.0574874309554614e-15
    vertex 17.887618071733783 16.808115271548903 2.000000000000001
    vertex 17.374627150539084 16.71098801245409 2.000000000000001
  endloop
endfacet
facet normal 0.4339924893852304 -0.9009164884478533 -0.0
  outer loop
    vertex 17.374627150539084 16.71098801245409 2.000000000000001
    vertex 16.904254355557654 16.48439846408787 1.0574874309554614e-15
    vertex 17.374627150539084 16.71098801245409 1.0574874309554614e-15
  endloop
endfacet
facet normal 0.4339924893852304 -0.9009164884478533 -0.0
  outer loop
    vertex 16.904254355557654 16.48439846408787 1.0574874309554614e-15
    vertex 17.374627150539084 16.71098801245409 2.000000000000001
    vertex 16.904254355557654 16.48439846408787 2.000000000000001
  endloop
endfacet
facet normal 0.6523788991698666 -0.7578929818370884 -0.0
  outer loop
    vertex 16.904254355557654 16.48439846408787 2.000000000000001
    vertex 16.50855481543967 16.143788329714464 1.0574874309554614e-15
    vertex 16.904254355557654 16.48439846408787 1.0574874309554614e-15
  endloop
endfacet
facet normal 0.6523788991698666 -0.7578929818370884 -0.0
  outer loop
    vertex 16.50855481543967 16.143788329714464 1.0574874309554614e-15
    vertex 16.904254355557654 16.48439846408787 2.000000000000001
    vertex 16.50855481543967 16.143788329714464 2.000000000000001
  endloop
endfacet
facet normal 0.8263067650831839 -0.5632203209914962 -0.0
  outer loop
    vertex 16.50855481543967 16.143788329714464 1.0574874309554614e-15
    vertex 16.21449479991977 15.712369627106558 2.000000000000001
    vertex 16.21449479991977 15.712369627106558 1.0574874309554614e-15
  endloop
endfacet
facet normal 0.8263067650831839 -0.5632203209914962 -0.0
  outer loop
    vertex 16.21449479991977 15.712369627106558 2.000000000000001
    vertex 16.50855481543967 16.143788329714464 1.0574874309554614e-15
    vertex 16.50855481543967 16.143788329714464 2.000000000000001
  endloop
endfacet
facet normal 0.9439231904925762 -0.33016512603592135 -0.0
  outer loop
    vertex 16.21449479991977 15.712369627106558 1.0574874309554614e-15
    vertex 16.04211401309848 15.219542827893763 2.000000000000001
    vertex 16.04211401309848 15.219542827893763 1.0574874309554614e-15
  endloop
endfacet
facet normal 0.9439231904925762 -0.33016512603592135 -0.0
  outer loop
    vertex 16.04211401309848 15.219542827893763 2.000000000000001
    vertex 16.21449479991977 15.712369627106558 1.0574874309554614e-15
    vertex 16.21449479991977 15.712369627106558 2.000000000000001
  endloop
endfacet
facet normal 0.997212810376726 -0.07460972336466681 -0.0
  outer loop
    vertex 16.04211401309848 15.219542827893763 1.0574874309554614e-15
    vertex 16.003159920724954 14.698893264007642 2.000000000000001
    vertex 16.003159920724954 14.698893264007642 1.0574874309554614e-15
  endloop
endfacet
facet normal 0.997212810376726 -0.07460972336466681 -0.0
  outer loop
    vertex 16.003159920724954 14.698893264007642 2.000000000000001
    vertex 16.04211401309848 15.219542827893763 1.0574874309554614e-15
    vertex 16.04211401309848 15.219542827893763 2.000000000000001
  endloop
endfacet
facet normal 0.9825440252057895 0.18603020865548928 0.0
  outer loop
    vertex 16.003159920724954 14.698893264007642 1.0574874309554614e-15
    vertex 16.100287179819766 14.185902342812945 2.000000000000001
    vertex 16.100287179819766 14.185902342812945 1.0574874309554614e-15
  endloop
endfacet
facet normal 0.9825440252057895 0.18603020865548928 0.0
  outer loop
    vertex 16.100287179819766 14.185902342812945 2.000000000000001
    vertex 16.003159920724954 14.698893264007642 1.0574874309554614e-15
    vertex 16.003159920724954 14.698893264007642 2.000000000000001
  endloop
endfacet
facet normal 0.9009164884478533 0.4339924893852304 0.0
  outer loop
    vertex 16.100287179819766 14.185902342812945 1.0574874309554614e-15
    vertex 16.326876728185983 13.715529547831514 2.000000000000001
    vertex 16.326876728185983 13.715529547831514 1.0574874309554614e-15
  endloop
endfacet
facet normal 0.9009164884478533 0.4339924893852304 0.0
  outer loop
    vertex 16.326876728185983 13.715529547831514 2.000000000000001
    vertex 16.100287179819766 14.185902342812945 1.0574874309554614e-15
    vertex 16.100287179819766 14.185902342812945 2.000000000000001
  endloop
endfacet
facet normal 0.7578929818370884 0.6523788991698666 0.0
  outer loop
    vertex 16.326876728185983 13.715529547831514 1.0574874309554614e-15
    vertex 16.667486862559393 13.319830007713529 2.000000000000001
    vertex 16.667486862559393 13.319830007713529 1.0574874309554614e-15
  endloop
endfacet
facet normal 0.7578929818370884 0.6523788991698666 0.0
  outer loop
    vertex 16.667486862559393 13.319830007713529 2.000000000000001
    vertex 16.326876728185983 13.715529547831514 1.0574874309554614e-15
    vertex 16.326876728185983 13.715529547831514 2.000000000000001
  endloop
endfacet
facet normal 0.5632203209914962 0.8263067650831839 0.0
  outer loop
    vertex 16.667486862559393 13.319830007713529 2.000000000000001
    vertex 17.0989055651673 13.025769992193629 1.0574874309554614e-15
    vertex 16.667486862559393 13.319830007713529 1.0574874309554614e-15
  endloop
endfacet
facet normal 0.5632203209914962 0.8263067650831839 0.0
  outer loop
    vertex 17.0989055651673 13.025769992193629 1.0574874309554614e-15
    vertex 16.667486862559393 13.319830007713529 2.000000000000001
    vertex 17.0989055651673 13.025769992193629 2.000000000000001
  endloop
endfacet
facet normal 0.3301651260359182 0.9439231904925772 0.0
  outer loop
    vertex 17.0989055651673 13.025769992193629 2.000000000000001
    vertex 17.59173236438009 12.853389205372341 1.0574874309554614e-15
    vertex 17.0989055651673 13.025769992193629 1.0574874309554614e-15
  endloop
endfacet
facet normal 0.3301651260359182 0.9439231904925772 0.0
  outer loop
    vertex 17.59173236438009 12.853389205372341 1.0574874309554614e-15
    vertex 17.0989055651673 13.025769992193629 2.000000000000001
    vertex 17.59173236438009 12.853389205372341 2.000000000000001
  endloop
endfacet
facet normal 0.07460972336467178 0.9972128103767256 0.0
  outer loop
    vertex 17.59173236438009 12.853389205372341 2.000000000000001
    vertex 18.112381928266213 12.814435112998813 1.0574874309554614e-15
    vertex 17.59173236438009 12.853389205372341 1.0574874309554614e-15
  endloop
endfacet
facet normal 0.07460972336467178 0.9972128103767256 0.0
  outer loop
    vertex 18.112381928266213 12.814435112998813 1.0574874309554614e-15
    vertex 17.59173236438009 12.853389205372341 2.000000000000001
    vertex 18.112381928266213 12.814435112998813 2.000000000000001
  endloop
endfacet
endsolid camera mount 2
